#!OML:ASF I:\Actors\actors\Patient Classification 2\Patient 1\Session 1\actor1.ASF
:FULLY-SPECIFIED
:DEGREES
132
root -0.70353 18.7134 5.31571 0.201791 -3.69796 -4.40562
lowerback 8.57484 1.074 -2.55373
upperback 1.9181 1.20223 0.12789
thorax -2.87358 0.614525 1.43649
lowerneck -14.601 3.9562 5.68693
upperneck 27.857 4.45611 -1.16797
head 11.6823 2.45426 -0.76485
rclavicle 1.16289e-014 -5.56597e-015
rhumerus -45.1208 3.20282 -89.2184
rradius 45.2584
rwrist 11.73
rhand -4.07166 -37.7263
rfingers 7.12502
rthumb 21.6851 -66.5318
lclavicle 1.16289e-014 -5.56597e-015
lhumerus 0.9932 -6.75381 70.4918
lradius 55.0878
lwrist -24.2412
lhand -17.0252 -19.0926
lfingers 7.12502
lthumb 9.21099 10.6862
rfemur 0 0 0
rtibia 0
rfoot 0 0
rtoes 0
lfemur -5.36031 -5.07266 -9.88471
ltibia 23.6456
lfoot -22.8628 13.6104
ltoes -54.8793
133
root -0.701692 18.7198 5.2813 0.396159 -3.8884 -4.46502
lowerback 9.36067 1.02493 -2.7743
upperback 1.91365 1.08866 0.0487634
thorax -3.31152 0.564444 1.47989
lowerneck -14.6079 4.09322 5.80451
upperneck 27.7162 4.59953 -1.11762
head 11.6379 2.53472 -0.745623
rclavicle 1.21259e-014 -7.15625e-015
rhumerus -45.2418 3.60152 -89.3983
rradius 45.8127
rwrist 11.335
rhand -4.07713 -37.4951
rfingers 7.12502
rthumb 21.6799 -66.3012
lclavicle 1.21259e-014 -7.15625e-015
lhumerus 2.42257 -5.63466 70.215
lradius 52.1515
lwrist -25.5849
lhand -17.1484 -19.1655
lfingers 7.12502
lthumb 9.09214 10.6185
rfemur 0 0 0
rtibia 0
rfoot 0 0
rtoes 0
lfemur -5.67877 -4.87918 -9.78905
ltibia 23.7037
lfoot -22.737 13.6819
ltoes -54.9378
134
root -0.697886 18.7275 5.24549 0.631045 -4.08402 -4.50883
lowerback 9.70033 0.921612 -3.26202
upperback 2.17907 0.896892 0.104476
thorax -3.22272 0.468937 1.83372
lowerneck -14.7557 4.32988 5.86064
upperneck 27.4069 4.90376 -1.11712
head 11.5627 2.67216 -0.709052
rclavicle 1.90833e-014 -1.51076e-014
rhumerus -44.9263 4.32562 -89.5017
rradius 46.3482
rwrist 10.7889
rhand -4.02758 -37.5893
rfingers 7.12502
rthumb 21.7275 -66.3899
lclavicle 1.90833e-014 -1.51076e-014
lhumerus 3.95206 -4.09994 70.0261
lradius 49.1492
lwrist -27.2195
lhand -17.2563 -19.3127
lfingers 7.12502
lthumb 8.98802 10.4758
rfemur 0 0 0
rtibia 0
rfoot 0 0
rtoes 0
lfemur -6.06056 -4.60951 -9.70618
ltibia 23.7787
lfoot -22.5423 13.7112
ltoes -54.9999
135
root -0.693589 18.7382 5.20733 0.959745 -4.23483 -4.50319
lowerback 10.0172 0.796753 -3.75592
upperback 2.38009 0.67212 0.122748
thorax -3.18122 0.357332 2.1575
lowerneck -14.8759 4.56358 5.84548
upperneck 27.0961 5.19703 -1.02242
head 11.4762 2.8096 -0.628266
rclavicle 3.97569e-015 -1.43125e-014
rhumerus -44.6708 4.96113 -89.6044
rradius 46.7959
rwrist 10.4163
rhand -4.07615 -37.4964
rfingers 7.12502
rthumb 21.6808 -66.3024
lclavicle 3.97569e-015 -1.43125e-014
lhumerus 5.57022 -2.2584 69.9833
lradius 45.7517
lwrist -29.4542
lhand -17.2122 -19.6956
lfingers 7.12502
lthumb 9.03055 10.0911
rfemur 0 0 0
rtibia 0
rfoot 0 0
rtoes 0
lfemur -6.59278 -4.34881 -9.66489
ltibia 23.8865
lfoot -22.3268 13.6883
ltoes -54.8975
136
root -0.688278 18.7484 5.17029 1.31197 -4.39685 -4.51559
lowerback 10.3841 0.700419 -4.12548
upperback 2.52107 0.490262 0.088778
thorax -3.22721 0.267958 2.35228
lowerneck -15.0333 4.73187 5.82796
upperneck 26.8175 5.39321 -0.918478
head 11.4053 2.90466 -0.557216
rclavicle 7.35503e-015 1.03368e-014
rhumerus -44.5051 5.43624 -89.7073
rradius 47.2137
rwrist 10.1511
rhand -4.1601 -37.3101
rfingers 7.12502
rthumb 21.6002 -66.1254
lclavicle 7.35503e-015 1.03368e-014
lhumerus 7.52224 0.143543 70.3462
lradius 41.8307
lwrist -32.3808
lhand -16.9079 -20.1988
lfingers 7.12502
lthumb 9.32422 9.57504
rfemur 0 0 0
rtibia 0
rfoot 0 0
rtoes 0
lfemur -7.17121 -4.08701 -9.61751
ltibia 24.0263
lfoot -22.0871 13.7253
ltoes -54.8671
137
root -0.683221 18.7558 5.13641 1.63989 -4.54156 -4.61182
lowerback 10.6679 0.613016 -4.39989
upperback 2.72046 0.334143 0.0634029
thorax -3.16534 0.187338 2.50067
lowerneck -15.2305 4.90168 5.96562
upperneck 26.4778 5.58438 -0.950777
head 11.3289 2.9958 -0.562024
rclavicle -7.35503e-015 1.51076e-014
rhumerus -44.2886 5.79903 -89.795
rradius 47.6471
rwrist 9.92594
rhand -4.18917 -37.3783
rfingers 7.12502
rthumb 21.5723 -66.1968
lclavicle -7.35503e-015 1.51076e-014
lhumerus 9.58817 3.10265 71.0884
lradius 38.0834
lwrist -35.6135
lhand -16.4204 -20.5785
lfingers 7.12502
lthumb 9.79453 9.1737
rfemur 0 0 0
rtibia 0
rfoot 0 0
rtoes 0
lfemur -7.72157 -3.83543 -9.48231
ltibia 24.176
lfoot -21.8312 13.8113
ltoes -54.9641
138
root -0.679242 18.7634 5.10486 1.97529 -4.59623 -4.66601
lowerback 10.8918 0.502829 -4.69437
upperback 2.91835 0.148054 0.040402
thorax -3.06774 0.0906566 2.66754
lowerneck -15.3717 5.09875 6.13239
upperneck 26.0986 5.81518 -1.00521
head 11.2307 3.10532 -0.57536
rclavicle -1.78906e-015 7.95139e-015
rhumerus -44.1005 6.09781 -89.8344
rradius 48.0536
rwrist 9.76339
rhand -4.1086 -37.4288
rfingers 7.12502
rthumb 21.6497 -66.2384
lclavicle -1.78906e-015 7.95139e-015
lhumerus 11.5168 6.67919 72.2595
lradius 34.943
lwrist -39.3297
lhand -16.0224 -21.0376
lfingers 7.12502
lthumb 10.1786 8.6962
rfemur 0 0 0
rtibia 0
rfoot 0 0
rtoes 0
lfemur -8.28254 -3.68763 -9.38333
ltibia 24.3223
lfoot -21.6735 13.8171
ltoes -54.8269
139
root -0.675159 18.7708 5.07573 2.33218 -4.59062 -4.66456
lowerback 11.12 0.361065 -4.98718
upperback 3.06428 -0.0822486 0.00654564
thorax -3.02083 -0.0263513 2.82864
lowerneck -15.5119 5.30161 6.17028
upperneck 25.7463 6.05808 -0.947185
head 11.135 3.22182 -0.524657
rclavicle 8.15017e-015 -2.78299e-014
rhumerus -44.0061 6.45649 -89.871
rradius 48.4325
rwrist 9.61119
rhand -4.01276 -37.2085
rfingers 7.12502
rthumb 21.7417 -66.0075
lclavicle 8.15017e-015 -2.78299e-014
lhumerus 13.2407 10.7128 73.8027
lradius 32.5967
lwrist -43.5824
lhand -15.9233 -21.7746
lfingers 7.12502
lthumb 10.2742 7.95446
rfemur 0 0 0
rtibia 0
rfoot 0 0
rtoes 0
lfemur -8.85805 -3.58859 -9.3468
ltibia 24.4504
lfoot -21.5712 13.7569
ltoes -54.5873
140
root -0.670871 18.776 5.05172 2.63909 -4.63557 -4.69836
lowerback 11.4299 0.240931 -5.15852
upperback 3.13794 -0.278725 -0.0438728
thorax -3.09601 -0.122739 2.90089
lowerneck -15.5745 5.48364 6.21504
upperneck 25.3864 6.27746 -0.897509
head 11.0212 3.3284 -0.484031
rclavicle 7.7526e-015 7.95139e-016
rhumerus -44.0748 6.77454 -89.957
rradius 48.8142
rwrist 9.44016
rhand -4.00777 -36.9758
rfingers 7.12502
rthumb 21.7465 -65.7742
lclavicle 7.7526e-015 7.95139e-016
lhumerus 14.4164 13.8019 74.9943
lradius 31.4581
lwrist -46.8841
lhand -15.9696 -22.6192
lfingers 7.12502
lthumb 10.2295 7.11209
rfemur 0 0 0
rtibia 0
rfoot 0 0
rtoes 0
lfemur -9.3194 -3.48148 -9.28686
ltibia 24.5314
lfoot -21.4832 13.7938
ltoes -54.6009
